<mxfile host="65bd71144e">
    <diagram name="ページ1" id="6KWnpKYZgovecatdag18">
        <mxGraphModel dx="746" dy="379" grid="1" gridSize="10" guides="1" tooltips="1" connect="1" arrows="1" fold="1" page="1" pageScale="1" pageWidth="827" pageHeight="1169" math="0" shadow="0">
            <root>
                <mxCell id="0"/>
                <mxCell id="1" parent="0"/>
                <mxCell id="2" value="" style="whiteSpace=wrap;html=1;fillColor=none;" vertex="1" parent="1">
                    <mxGeometry x="30" y="10" width="770" height="370" as="geometry"/>
                </mxCell>
                <mxCell id="KBqEdn5SgZ5WZnfKdi-t-1" value="" style="rounded=0;whiteSpace=wrap;html=1;" parent="1" vertex="1">
                    <mxGeometry x="260" y="50" width="460" height="60" as="geometry"/>
                </mxCell>
                <mxCell id="KBqEdn5SgZ5WZnfKdi-t-2" value="プレースホルダーで出す。&lt;br&gt;&lt;div&gt;例：危険物取扱者乙種４類&lt;/div&gt;" style="rounded=0;whiteSpace=wrap;html=1;" parent="1" vertex="1">
                    <mxGeometry x="260" y="150" width="460" height="60" as="geometry"/>
                </mxCell>
                <mxCell id="KBqEdn5SgZ5WZnfKdi-t-16" value="グループ名" style="text;strokeColor=none;fillColor=none;html=1;fontSize=24;fontStyle=1;verticalAlign=middle;align=center;" parent="1" vertex="1">
                    <mxGeometry x="80" y="60" width="100" height="40" as="geometry"/>
                </mxCell>
                <mxCell id="KBqEdn5SgZ5WZnfKdi-t-17" value="資格名" style="text;strokeColor=none;fillColor=none;html=1;fontSize=24;fontStyle=1;verticalAlign=middle;align=center;" parent="1" vertex="1">
                    <mxGeometry x="80" y="160" width="100" height="40" as="geometry"/>
                </mxCell>
                <mxCell id="KBqEdn5SgZ5WZnfKdi-t-20" value="" style="verticalLabelPosition=bottom;verticalAlign=top;html=1;shape=mxgraph.basic.rect;fillColor2=none;strokeWidth=1;size=20;indent=5;fillColor=#1ba1e2;strokeColor=#006EAF;fontColor=#ffffff;" parent="1" vertex="1">
                    <mxGeometry x="580" y="250" width="120" height="70" as="geometry"/>
                </mxCell>
                <mxCell id="KBqEdn5SgZ5WZnfKdi-t-21" value="作る" style="text;strokeColor=none;fillColor=none;html=1;fontSize=24;fontStyle=1;verticalAlign=middle;align=center;" parent="1" vertex="1">
                    <mxGeometry x="590" y="265" width="100" height="40" as="geometry"/>
                </mxCell>
                <mxCell id="KBqEdn5SgZ5WZnfKdi-t-22" value="" style="rounded=0;whiteSpace=wrap;html=1;fillColor=#d0cee2;strokeColor=#56517e;" parent="1" vertex="1">
                    <mxGeometry x="420" y="250" width="120" height="70" as="geometry"/>
                </mxCell>
                <mxCell id="KBqEdn5SgZ5WZnfKdi-t-23" value="戻る" style="text;strokeColor=none;fillColor=none;html=1;fontSize=24;fontStyle=1;verticalAlign=middle;align=center;" parent="1" vertex="1">
                    <mxGeometry x="430" y="265" width="100" height="40" as="geometry"/>
                </mxCell>
            </root>
        </mxGraphModel>
    </diagram>
</mxfile>